# xmcd CD database file
#
# Track frame offsets:
#	150
#	10186
#	22054
#	34191
#	46501
#	59616
#	70418
#	81192
#	93848
#	105989
#	119276
#	132875
#	143473
#	156354
#	169830
#	181976
#	195475
#	208440
#	220663
#	230763
#	243053
#	253878
#	266343
#
# Disc length: 3716 seconds
#
# Revision: 2
# Processed by: cddbd v1.5.2PL0 Copyright (c) Steve Scherf et al.
# Submitted via: CDex 1.81
#
DISCID=3e0e8217
DTITLE=Various Artist - Bluegrass Meets Banjo
DYEAR=2001
DGENRE=Bluegrass
TTITLE0=Bill Monroe - Blue Grass Ramble
TTITLE1=Flatt and Scruggs - My Cabin In Caroline
TTITLE2=Flatt and Scruggs - Foggy Mountain Breakdown
TTITLE3=The Stanley Brothers - Hey! Hey! Hey!
TTITLE4=Bill Monroe - Lonesome Truck Driver's Blues
TTITLE5=Flatt and Scruggs - Cora Is Gone
TTITLE6=Jim Eanes - Florida Blues
TTITLE7=Wilma Lee and Stoney Cooper - On The Banks Of The River
TTITLE8=Johnnie and Jack - A Smile On My Lips (And An Ache In My Heart)
TTITLE9=Flatt and Scruggs - 'tis Sweet To Be Remembered
TTITLE10=Flatt and Scruggs - Earl's Breakdown
TTITLE11=The Stanley Brothers - The Old Home
TTITLE12=Jim Eanes - Curtains Of Sorrow
TTITLE13=Bill Monroe - Blue Grass Stomp
TTITLE14=Flatt and Scruggs - Down The Road
TTITLE15=Wilma Lee and Stoney Cooper - Sunny Side Of The Mountain
TTITLE16=The Stanley Brothers - Pretty Polly
TTITLE17=Flatt and Scruggs - Don't Get Above Your Raisin'
TTITLE18=Mac Wiseman - A Broken Heart To Mend
TTITLE19=Charlie Monroe - My Saviour's Train
TTITLE20=Jim Eanes - Little Brown Hand
TTITLE21=The Stanley Brothers - The Lonesome River
TTITLE22=Bill Monroe - Molly And Tenbrooks (The Race Horse Song)
EXTD=MA5901\n YEAR: 2001
EXTT0=
EXTT1=
EXTT2=
EXTT3=
EXTT4=
EXTT5=
EXTT6=
EXTT7=
EXTT8=
EXTT9=
EXTT10=
EXTT11=
EXTT12=
EXTT13=
EXTT14=
EXTT15=
EXTT16=
EXTT17=
EXTT18=
EXTT19=
EXTT20=
EXTT21=
EXTT22=
PLAYORDER=
